<svg width="24" height="24" viewBox="0 0 24 24" fill="none" xmlns="http://www.w3.org/2000/svg">
<g id="Projects" clip-path="url(#clip0_391_533)">
<rect width="1920" height="1739" transform="translate(-163 -884)" fill="white"/>
<rect id="Rectangle 6" x="-333" y="-1014" width="2240" height="3352" fill="black"/>
<rect id="Rectangle 164" x="-43" y="-432" width="528" height="500" rx="25" fill="#343434"/>
<g id="Group">
<path id="Vector" d="M12 0C5.373 0 0 5.373 0 12C0 18.627 5.373 24 12 24C18.627 24 24 18.627 24 12C24 5.373 18.627 0 12 0ZM16.0665 16.0665C15.4792 16.6538 14.5035 16.6245 13.9162 16.0373L10.941 13.062C10.8019 12.9244 10.692 12.7575 10.6159 12.5726C10.5394 12.3896 10.5 12.1961 10.5 12V6C10.5 5.17087 11.1709 4.5 12 4.5C12.8291 4.5 13.5 5.17087 13.5 6V11.379L16.0721 13.9511C16.6597 14.5388 16.6522 15.4804 16.0665 16.0665Z" fill="white"/>
</g>
<g id="Group_2">
<path id="Vector_2" d="M12 0C5.373 0 0 5.373 0 12C0 18.627 5.373 24 12 24C18.627 24 24 18.627 24 12C24 5.373 18.627 0 12 0ZM16.0665 16.0665C15.4792 16.6538 14.5035 16.6245 13.9162 16.0373L10.941 13.062C10.8019 12.9244 10.692 12.7575 10.6159 12.5726C10.5394 12.3896 10.5 12.1961 10.5 12V6C10.5 5.17087 11.1709 4.5 12 4.5C12.8291 4.5 13.5 5.17087 13.5 6V11.379L16.0721 13.9511C16.6597 14.5388 16.6522 15.4804 16.0665 16.0665Z" fill="white"/>
</g>
</g>
<defs>
<clipPath id="clip0_391_533">
<rect width="1920" height="1739" fill="white" transform="translate(-163 -884)"/>
</clipPath>
</defs>
</svg>
