<svg width="48" height="48" viewBox="0 0 48 48" fill="none" xmlns="http://www.w3.org/2000/svg">
<g id="Group">
<g id="Group_2">
<path id="Vector" d="M24 6.58032e-06C10.7621 7.15897e-06 -1.62772e-06 10.7621 -1.04907e-06 24C-4.70426e-07 37.2379 10.7621 48 24 48C37.2379 48 48 37.2379 48 24C48 10.7621 37.2379 6.00167e-06 24 6.58032e-06ZM37.44 25.3642L28.6989 34.1053C28.3453 34.4589 27.84 34.6611 27.3347 34.6611C26.8295 34.6611 26.3747 34.4589 25.9705 34.1053C25.2126 33.3474 25.2126 32.1347 25.9705 31.4274L31.4779 25.92L11.9242 25.92C10.8632 25.92 10.0042 25.0611 10.0042 24C10.0042 22.939 10.8632 22.08 11.9242 22.08L31.4779 22.08L25.9705 16.5726C25.2126 15.8147 25.2126 14.6021 25.9705 13.8947C26.7284 13.1368 27.941 13.1368 28.6484 13.8947L37.44 22.6358C37.7937 22.9895 37.9958 23.4947 37.9958 24C37.9958 24.5053 37.7937 25.0105 37.44 25.3642Z" fill="white"/>
</g>
</g>
</svg>
